<svg width="158" height="158" viewBox="0 0 158 158" fill="none" xmlns="http://www.w3.org/2000/svg">
<g clip-path="url(#clip0)">
<path d="M144.31 100.334L113.408 121.015L104.198 120.497L103.838 116.873C103.302 111.477 99.1476 107.147 93.7786 106.386L61.1074 103.524C57.9057 103.07 51.1709 99.5106 45.8911 96.4813C40.8861 93.6111 35.2301 92.0645 29.4597 92.0163L12.8486 91.8789V132.487L59.867 150.292C61.6438 150.794 63.5099 150.944 65.3337 150.655C65.3445 150.654 65.3554 150.653 65.3662 150.65L112.703 143.828C116.349 143.245 119.778 141.708 122.639 139.375L153.235 111.859C155.98 109.421 156.489 105.323 154.423 102.288C152.163 98.9657 147.644 98.093 144.31 100.334Z" fill="#FAE0C1"/>
<path d="M154.423 102.288C154.218 101.987 153.995 101.707 153.755 101.447L122.639 124.297C119.778 126.631 116.351 128.166 112.703 128.749L65.3662 135.573C65.3554 135.574 65.3445 135.575 65.3337 135.577C63.5099 135.866 61.6438 135.715 59.867 135.213L12.8486 117.409V132.487L59.867 150.292C61.6438 150.794 63.5099 150.944 65.3337 150.655C65.3457 150.654 65.3554 150.653 65.3662 150.65L112.703 143.828C116.349 143.245 119.778 141.708 122.639 139.375L153.235 111.859C155.98 109.421 156.488 105.323 154.423 102.288Z" fill="#EFD0AF"/>
<path d="M25.0385 146.502H5.50667C3.7419 146.502 2.31104 145.072 2.31104 143.307V83.6722C2.31104 81.9074 3.7419 80.4766 5.50667 80.4766H25.0385C26.8033 80.4766 28.2341 81.9074 28.2341 83.6722V143.307C28.2341 145.072 26.8033 146.502 25.0385 146.502Z" fill="#F43B45"/>
<path d="M25.0382 80.4766H13.1826V146.502H25.0382C26.8029 146.502 28.2338 145.072 28.2338 143.307V83.6722C28.2338 81.9074 26.8029 80.4766 25.0382 80.4766Z" fill="#CF3735"/>
<path d="M118.63 28.4676C110.912 25.2636 105.52 18.008 104.782 9.55664C104.681 8.40062 103.698 7.52064 102.539 7.52788L79.0686 7.6653L78.5924 7.66771L55.1224 7.80513C53.9483 7.81236 52.99 8.72488 52.8996 9.89416C52.2486 18.3479 46.9375 25.6566 39.2564 28.9426C37.9545 29.4983 37.1734 30.8412 37.3204 32.2491C38.3981 42.5509 44.6724 77.6317 78.8781 93.4098C79.0204 93.4761 79.1771 93.5098 79.3338 93.5086C79.4905 93.5074 79.646 93.4724 79.7882 93.4049C113.805 77.2279 119.668 42.0783 120.625 31.7621C120.758 30.3433 119.945 29.0137 118.63 28.4676Z" fill="#75CFF2"/>
<path d="M118.63 28.4676C110.912 25.2636 105.52 18.008 104.782 9.55664C104.681 8.40062 103.698 7.52064 102.539 7.52788L89.6186 7.60382C89.6343 16.8713 95.2372 25.0092 103.536 28.4604C104.854 29.0101 105.679 30.3385 105.547 31.7621C104.66 41.3261 99.5515 72.2361 71.6997 89.5825C73.9455 90.9531 76.3322 92.2357 78.8781 93.411C79.0216 93.4761 79.1771 93.5098 79.3338 93.5086C79.4905 93.5086 79.646 93.4724 79.7882 93.4049C113.805 77.2279 119.669 42.0783 120.626 31.7621C120.758 30.3433 119.945 29.0137 118.63 28.4676Z" fill="#53B4E4"/>
<path d="M78.6745 83.6434C55.2684 70.9405 48.4806 47.3776 46.535 35.8162C46.4518 35.3208 46.6712 34.8229 47.0979 34.5577C53.4566 30.6147 58.1 24.4935 60.1963 17.3548C60.3506 16.828 60.8352 16.4688 61.3836 16.4652L96.3765 16.2603C96.925 16.2567 97.4132 16.6111 97.5735 17.1354C99.7529 24.2476 104.467 30.3146 110.873 34.184C111.304 34.4432 111.529 34.9386 111.452 35.4353C109.642 47.0196 103.134 70.6608 79.8764 83.6362C79.5051 83.8435 79.0482 83.8459 78.6745 83.6434Z" fill="#E1E0DE"/>
<path d="M110.873 34.184C104.469 30.3146 99.7529 24.2476 97.5735 17.1354C97.4131 16.6111 96.9249 16.2567 96.3765 16.2603L82.2667 16.3423C84.3305 23.7967 89.1546 30.1735 95.7966 34.1852C96.2258 34.4432 96.4512 34.9374 96.374 35.4329C94.7563 45.7864 89.3837 65.7751 71.6504 79.17C73.8081 80.7684 76.1431 82.2704 78.6745 83.6434C79.0482 83.8459 79.5039 83.8435 79.8763 83.6362C103.133 70.6608 109.642 47.0196 111.452 35.4341C111.529 34.9386 111.303 34.4432 110.873 34.184Z" fill="#D6D6D6"/>
<path d="M20.7216 131.832C20.7216 135.077 18.0914 137.706 14.8475 137.706C11.6024 137.706 8.97217 135.077 8.97217 131.832C8.97217 128.588 11.6024 125.958 14.8475 125.958C18.0914 125.958 20.7216 128.588 20.7216 131.832Z" fill="#EDEDED"/>
<path d="M76.3336 60.2447C77.363 61.2223 79.0748 61.0246 79.8571 59.8445L95.2615 36.5963C95.9679 35.5307 95.6762 34.0938 94.6105 33.3874C93.5461 32.6822 92.1092 32.9739 91.4029 34.0383L77.521 54.9889L69.8073 47.6647C68.8803 46.7847 67.4157 46.8233 66.5345 47.7502C65.6546 48.6772 65.6931 50.1418 66.6201 51.0218C66.6189 51.0218 76.3252 60.2374 76.3336 60.2447Z" fill="black"/>
<path d="M77.9125 95.5459C78.3549 95.7485 78.8443 95.8557 79.3313 95.8557H79.3506C79.8461 95.8533 80.3427 95.74 80.7863 95.5279C115.98 78.7903 121.945 42.6776 122.933 32.0082C123.16 29.572 121.788 27.3033 119.521 26.3631C112.515 23.4543 107.752 16.9498 107.092 9.388C106.888 7.06029 104.899 5.24609 102.555 5.24609H102.528L55.1127 5.52455C52.7223 5.53781 50.7804 7.35442 50.5971 9.74963C50.0137 17.3138 45.3209 23.8654 38.3498 26.8477C36.1053 27.8072 34.7672 30.0879 35.0228 32.5229C36.1366 43.1802 42.5243 79.2218 77.9125 95.5459ZM40.17 31.1029C48.7179 27.448 54.4763 19.4233 55.208 10.1523L102.487 9.875C103.327 19.1256 109.167 27.0767 117.746 30.6376C118.13 30.7979 118.362 31.1764 118.325 31.5814C117.397 41.5806 111.843 75.2957 79.3229 91.0954C46.6156 75.6802 40.6715 42.0302 39.6252 32.0419C39.583 31.6381 39.8024 31.2608 40.17 31.1029Z" fill="black"/>
<path d="M45.9492 43.9336C46.2288 44.963 47.5343 45.9057 48.7904 45.5597C50.0224 45.2198 50.7516 43.9529 50.4165 42.7197C49.8271 40.5475 49.3316 38.3451 48.9423 36.1633C55.2299 32.066 59.8961 25.9507 62.1853 18.8085L95.6098 18.612C97.9822 25.7253 102.72 31.7875 109.055 35.8101C108.693 37.998 108.222 40.2075 107.657 42.3882C107.336 43.6262 108.08 44.8895 109.317 45.2101C110.556 45.5308 111.818 44.787 112.139 43.549C112.802 40.9887 113.342 38.3897 113.742 35.8245C113.966 34.3913 113.311 32.9821 112.074 32.2347C106.172 28.6702 101.809 23.0782 99.7903 16.4892C99.3359 15.0077 97.9388 13.9783 96.3886 13.9783H96.3669L61.3728 14.1832C59.813 14.1928 58.4171 15.2428 57.9795 16.7351C56.0387 23.347 51.7413 28.9897 45.8816 32.6241C44.6533 33.3847 44.0156 34.8011 44.2555 36.2332C44.6871 38.7923 45.256 41.3828 45.9492 43.9336Z" fill="black"/>
<path d="M107.46 50.7963C106.279 50.3069 104.926 50.871 104.438 52.0524C99.0897 65.0157 90.6227 74.8714 79.265 81.3579C67.8193 74.9968 59.2293 65.2242 53.73 52.3019C53.2286 51.1266 51.8688 50.5793 50.6935 51.0796C49.517 51.5798 48.9697 52.9396 49.47 54.1149C55.4719 68.2162 64.9274 78.847 77.5737 85.7096C78.1065 86.0001 78.69 86.1435 79.2722 86.1435C79.8689 86.1435 80.4644 85.9928 81.0068 85.6903C93.5579 78.6879 102.881 67.9642 108.718 53.8171C109.206 52.6358 108.643 51.2833 107.46 50.7963Z" fill="black"/>
<path d="M14.8497 123.676C10.3353 123.676 6.66113 127.349 6.66113 131.865C6.66113 136.38 10.3353 140.053 14.8497 140.053C19.3653 140.053 23.0395 136.38 23.0395 131.865C23.0395 127.349 19.3665 123.676 14.8497 123.676ZM14.8497 135.424C12.8873 135.424 11.29 133.828 11.29 131.865C11.29 129.902 12.8873 128.305 14.8497 128.305C16.8134 128.305 18.4106 129.902 18.4106 131.865C18.4106 133.828 16.8134 135.424 14.8497 135.424Z" fill="black"/>
<path d="M156.34 101.018C153.374 96.6586 147.401 95.5038 143.026 98.4427L112.769 118.693L106.311 118.33L106.145 116.676C105.502 110.199 100.551 105.039 94.1066 104.128C94.0657 104.122 94.0259 104.117 93.9849 104.113L61.3824 101.256C60.2795 101.084 56.7487 100.07 47.0473 94.5057C42.0049 91.6138 36.3237 89.9817 30.552 89.7599V83.7049C30.552 80.666 28.0808 78.1948 25.0419 78.1948H5.51009C2.47237 78.1948 0 80.6672 0 83.7049V143.339C0 146.377 2.47237 148.85 5.51009 148.85H25.0419C28.0796 148.85 30.552 146.377 30.552 143.339V141.696L59.0511 152.489C59.1138 152.513 61.4282 153.378 65.6835 152.977C65.6955 152.976 113.037 146.151 113.037 146.151C113.049 146.149 113.06 146.147 113.072 146.145C117.117 145.5 120.933 143.789 124.107 141.201C124.135 141.177 124.163 141.153 124.191 141.129L154.774 113.622C158.379 110.421 159.052 105.003 156.34 101.018ZM151.69 110.17L121.139 137.649C118.61 139.699 115.574 141.055 112.358 141.571L65.0398 148.393C65.0289 148.394 65.0132 148.396 64.9988 148.399C64.9915 148.4 64.9831 148.401 64.9759 148.402C63.5607 148.625 62.0864 148.531 60.5929 148.123L30.552 136.747V110.315C30.552 109.036 29.5153 108.001 28.2375 108.001C26.9586 108.001 25.9231 109.036 25.9231 110.315V143.339C25.9231 143.825 25.5277 144.221 25.0419 144.221H5.51009C5.02429 144.221 4.62891 143.825 4.62891 143.339V83.7049C4.62891 83.2191 5.02429 82.8237 5.51009 82.8237H25.0419C25.5277 82.8237 25.9231 83.2191 25.9231 83.7049V99.8603C25.9231 101.139 26.9598 102.175 28.2375 102.175C29.5165 102.175 30.552 101.138 30.552 99.8603V94.3936C35.5172 94.613 40.4017 96.0306 44.7437 98.5222C56.4449 105.233 59.7129 105.696 60.7869 105.848C60.8279 105.854 60.8677 105.857 60.9087 105.862L93.5148 108.719C97.8134 109.354 101.109 112.807 101.539 117.134L101.662 118.367L58.0096 121.063C57.9795 121.06 57.9493 121.058 57.9228 121.056C56.5076 120.928 55.2298 120.259 54.3221 119.171C53.5037 118.189 52.0439 118.056 51.0626 118.876C50.0802 119.695 49.9476 121.154 50.7673 122.136C52.4658 124.173 54.8622 125.392 57.5105 125.666C58.9402 125.816 104.208 122.848 104.208 122.848L113.283 123.358C113.784 123.387 114.282 123.25 114.699 122.97L145.604 102.287C147.874 100.762 150.973 101.36 152.513 103.621C153.92 105.69 153.57 108.501 151.69 110.17Z" fill="black"/>
</g>
<defs>
<clipPath id="clip0">
<rect width="158" height="158" fill="white"/>
</clipPath>
</defs>
</svg>
